<mxfile host="app.diagrams.net" modified="2020-10-23T09:31:48.110Z" agent="5.0 (Windows NT 10.0; Win64; x64) AppleWebKit/537.36 (KHTML, like Gecko) Chrome/86.0.4240.75 Safari/537.36" etag="JSGAHSVeOLD6vr4yf6Dv" version="13.8.1" type="github">
  <diagram name="Page-1" id="c4acf3e9-155e-7222-9cf6-157b1a14988f">
    <mxGraphModel dx="538" dy="338" grid="1" gridSize="10" guides="1" tooltips="1" connect="1" arrows="1" fold="1" page="1" pageScale="1" pageWidth="850" pageHeight="1100" background="#ffffff" math="0" shadow="0">
      <root>
        <mxCell id="0" />
        <mxCell id="1" parent="0" />
        <mxCell id="0VHftys2yhJCfkwD6qfy-1" value="" style="outlineConnect=0;fontColor=#232F3E;gradientColor=none;fillColor=#232F3E;strokeColor=none;dashed=0;verticalLabelPosition=bottom;verticalAlign=top;align=center;html=1;fontSize=12;fontStyle=0;aspect=fixed;pointerEvents=1;shape=mxgraph.aws4.client;" vertex="1" parent="1">
          <mxGeometry x="50" y="60" width="78" height="76" as="geometry" />
        </mxCell>
        <mxCell id="0VHftys2yhJCfkwD6qfy-7" style="edgeStyle=none;rounded=0;orthogonalLoop=1;jettySize=auto;html=1;endArrow=none;endFill=0;" edge="1" parent="1">
          <mxGeometry relative="1" as="geometry">
            <mxPoint x="350" y="640" as="targetPoint" />
            <mxPoint x="350" y="240" as="sourcePoint" />
          </mxGeometry>
        </mxCell>
        <mxCell id="0VHftys2yhJCfkwD6qfy-9" style="edgeStyle=none;rounded=0;orthogonalLoop=1;jettySize=auto;html=1;startArrow=none;startFill=0;endArrow=classic;endFill=1;labelBorderColor=none;" edge="1" parent="1">
          <mxGeometry relative="1" as="geometry">
            <mxPoint x="520" y="280" as="targetPoint" />
            <mxPoint x="350" y="260" as="sourcePoint" />
          </mxGeometry>
        </mxCell>
        <mxCell id="0VHftys2yhJCfkwD6qfy-11" value="SYN" style="edgeLabel;html=1;align=center;verticalAlign=middle;resizable=0;points=[];" vertex="1" connectable="0" parent="0VHftys2yhJCfkwD6qfy-9">
          <mxGeometry x="-0.1948" y="-2" relative="1" as="geometry">
            <mxPoint x="12.04" as="offset" />
          </mxGeometry>
        </mxCell>
        <mxCell id="0VHftys2yhJCfkwD6qfy-2" value="" style="shape=mxgraph.cisco.people.androgenous_person;html=1;pointerEvents=1;dashed=0;fillColor=#036897;strokeColor=#ffffff;strokeWidth=2;verticalLabelPosition=bottom;verticalAlign=top;align=center;outlineConnect=0;" vertex="1" parent="1">
          <mxGeometry x="260" y="170" width="69" height="82" as="geometry" />
        </mxCell>
        <mxCell id="0VHftys2yhJCfkwD6qfy-4" value="" style="shape=mxgraph.cisco.servers.standard_host;html=1;pointerEvents=1;dashed=0;fillColor=#036897;strokeColor=#ffffff;strokeWidth=2;verticalLabelPosition=bottom;verticalAlign=top;align=center;outlineConnect=0;" vertex="1" parent="1">
          <mxGeometry x="557" y="220" width="43" height="62" as="geometry" />
        </mxCell>
        <mxCell id="0VHftys2yhJCfkwD6qfy-5" value="" style="shape=mxgraph.cisco.servers.fileserver;html=1;pointerEvents=1;dashed=0;fillColor=#036897;strokeColor=#ffffff;strokeWidth=2;verticalLabelPosition=bottom;verticalAlign=top;align=center;outlineConnect=0;" vertex="1" parent="1">
          <mxGeometry x="550" y="151" width="43" height="62" as="geometry" />
        </mxCell>
        <mxCell id="0VHftys2yhJCfkwD6qfy-6" value="" style="shape=mxgraph.cisco.servers.moh_server;html=1;pointerEvents=1;dashed=0;fillColor=#036897;strokeColor=#ffffff;strokeWidth=2;verticalLabelPosition=bottom;verticalAlign=top;align=center;outlineConnect=0;" vertex="1" parent="1">
          <mxGeometry x="605" y="170" width="43" height="62" as="geometry" />
        </mxCell>
        <mxCell id="0VHftys2yhJCfkwD6qfy-8" style="edgeStyle=none;rounded=0;orthogonalLoop=1;jettySize=auto;html=1;endArrow=none;endFill=0;" edge="1" parent="1">
          <mxGeometry relative="1" as="geometry">
            <mxPoint x="520" y="640" as="targetPoint" />
            <mxPoint x="520" y="240" as="sourcePoint" />
          </mxGeometry>
        </mxCell>
        <mxCell id="0VHftys2yhJCfkwD6qfy-10" value="SYN+ACK" style="edgeStyle=none;rounded=0;orthogonalLoop=1;jettySize=auto;html=1;startArrow=none;startFill=0;endArrow=classic;endFill=1;" edge="1" parent="1">
          <mxGeometry relative="1" as="geometry">
            <mxPoint x="350" y="310" as="targetPoint" />
            <mxPoint x="520" y="286" as="sourcePoint" />
          </mxGeometry>
        </mxCell>
        <mxCell id="0VHftys2yhJCfkwD6qfy-16" style="edgeStyle=none;rounded=0;orthogonalLoop=1;jettySize=auto;html=1;startArrow=none;startFill=0;endArrow=classic;endFill=1;labelBorderColor=none;" edge="1" parent="1">
          <mxGeometry relative="1" as="geometry">
            <mxPoint x="520" y="340" as="targetPoint" />
            <mxPoint x="350" y="320" as="sourcePoint" />
          </mxGeometry>
        </mxCell>
        <mxCell id="0VHftys2yhJCfkwD6qfy-17" value="ACK" style="edgeLabel;html=1;align=center;verticalAlign=middle;resizable=0;points=[];" vertex="1" connectable="0" parent="0VHftys2yhJCfkwD6qfy-16">
          <mxGeometry x="-0.1948" y="-2" relative="1" as="geometry">
            <mxPoint x="12.04" as="offset" />
          </mxGeometry>
        </mxCell>
        <mxCell id="0VHftys2yhJCfkwD6qfy-18" value="数据传输" style="rounded=0;whiteSpace=wrap;html=1;dashed=1;" vertex="1" parent="1">
          <mxGeometry x="350" y="360" width="170" height="70" as="geometry" />
        </mxCell>
        <mxCell id="0VHftys2yhJCfkwD6qfy-19" style="edgeStyle=none;rounded=0;orthogonalLoop=1;jettySize=auto;html=1;startArrow=none;startFill=0;endArrow=classic;endFill=1;labelBorderColor=none;" edge="1" parent="1">
          <mxGeometry relative="1" as="geometry">
            <mxPoint x="520" y="460" as="targetPoint" />
            <mxPoint x="350" y="440" as="sourcePoint" />
          </mxGeometry>
        </mxCell>
        <mxCell id="0VHftys2yhJCfkwD6qfy-20" value="FIN" style="edgeLabel;html=1;align=center;verticalAlign=middle;resizable=0;points=[];" vertex="1" connectable="0" parent="0VHftys2yhJCfkwD6qfy-19">
          <mxGeometry x="-0.1948" y="-2" relative="1" as="geometry">
            <mxPoint x="12.04" as="offset" />
          </mxGeometry>
        </mxCell>
        <mxCell id="0VHftys2yhJCfkwD6qfy-21" value="ACK" style="edgeStyle=none;rounded=0;orthogonalLoop=1;jettySize=auto;html=1;startArrow=none;startFill=0;endArrow=classic;endFill=1;" edge="1" parent="1">
          <mxGeometry x="0.0544" y="-3" relative="1" as="geometry">
            <mxPoint x="350" y="494" as="targetPoint" />
            <mxPoint x="520" y="470" as="sourcePoint" />
            <mxPoint as="offset" />
          </mxGeometry>
        </mxCell>
        <mxCell id="0VHftys2yhJCfkwD6qfy-23" value="FIN" style="edgeStyle=none;rounded=0;orthogonalLoop=1;jettySize=auto;html=1;startArrow=none;startFill=0;endArrow=classic;endFill=1;" edge="1" parent="1">
          <mxGeometry x="-0.29" y="3" relative="1" as="geometry">
            <mxPoint x="350" y="503" as="targetPoint" />
            <mxPoint x="520" y="479" as="sourcePoint" />
            <mxPoint as="offset" />
          </mxGeometry>
        </mxCell>
        <mxCell id="0VHftys2yhJCfkwD6qfy-24" style="edgeStyle=none;rounded=0;orthogonalLoop=1;jettySize=auto;html=1;startArrow=none;startFill=0;endArrow=classic;endFill=1;labelBorderColor=none;" edge="1" parent="1">
          <mxGeometry relative="1" as="geometry">
            <mxPoint x="520" y="530" as="targetPoint" />
            <mxPoint x="350" y="510" as="sourcePoint" />
          </mxGeometry>
        </mxCell>
        <mxCell id="0VHftys2yhJCfkwD6qfy-25" value="ACK" style="edgeLabel;html=1;align=center;verticalAlign=middle;resizable=0;points=[];" vertex="1" connectable="0" parent="0VHftys2yhJCfkwD6qfy-24">
          <mxGeometry x="-0.1948" y="-2" relative="1" as="geometry">
            <mxPoint x="12.04" as="offset" />
          </mxGeometry>
        </mxCell>
        <mxCell id="0VHftys2yhJCfkwD6qfy-26" value="通信建立阶段" style="text;html=1;strokeColor=none;fillColor=none;align=center;verticalAlign=middle;whiteSpace=wrap;rounded=0;dashed=1;" vertex="1" parent="1">
          <mxGeometry x="300" y="300" width="40" height="20" as="geometry" />
        </mxCell>
        <mxCell id="0VHftys2yhJCfkwD6qfy-27" value="会话结束阶段" style="text;html=1;strokeColor=none;fillColor=none;align=center;verticalAlign=middle;whiteSpace=wrap;rounded=0;dashed=1;" vertex="1" parent="1">
          <mxGeometry x="300" y="470" width="40" height="20" as="geometry" />
        </mxCell>
      </root>
    </mxGraphModel>
  </diagram>
</mxfile>
